<!DOCTYPE svg PUBLIC "-//W3C//DTD SVG 1.1//EN" "http://www.w3.org/Graphics/SVG/1.1/DTD/svg11.dtd">
<svg width="800px" height="800px" viewBox="0 0 32 32" fill="none" xmlns="http://www.w3.org/2000/svg">
  <g id="SVGRepo_bgCarrier" stroke-width="0"></g>
  <g id="SVGRepo_tracerCarrier" stroke-linecap="round" stroke-linejoin="round"></g>
  <g id="SVGRepo_iconCarrier">
    <rect x="20" y="10" width="7" height="2" fill="#ffffff"></rect>
    <rect x="20" y="16" width="10" height="2" fill="#ffffff"></rect>
    <rect x="20" y="22" width="7" height="2" fill="#ffffff"></rect>
    <path d="M10,20.1839V7H8V20.1839a3,3,0,1,0,2,0Z" fill="#ffffff"></path>
    <path d="M30,4H12.9744A4.9829,4.9829,0,0,0,4,7V18.1108a7,7,0,1,0,10,0V7a5.0019,5.0019,0,0,0-.1011-1H30ZM9,28a4.9933,4.9933,0,0,1-3.332-8.7183L6,18.9834V7a3,3,0,0,1,6,0V18.9834l.332.2983A4.9933,4.9933,0,0,1,9,28Z" fill="#ffffff"></path>
    <rect class="cls-1" width="32" height="32"></rect>
  </g>
</svg>